<svg id="svg42" width="320" height="180" version="1.1" viewBox="0 0 320 180" xmlns="http://www.w3.org/2000/svg">
 <defs id="defs18">
  <linearGradient id="linearGradient15" x1="105.9" x2="134.15" y1="68.661" y2="111.44" gradientTransform="translate(5)" gradientUnits="userSpaceOnUse">
   <stop id="stop1" stop-color="#fff" offset="0"/>
   <stop id="stop2" offset="1"/>
  </linearGradient>
  <linearGradient id="linearGradient17" x1="136.79" x2="168.09" y1="68" y2="111.05" gradientTransform="translate(5)" gradientUnits="userSpaceOnUse">
   <stop id="stop3" stop-color="#fff" offset="0"/>
   <stop id="stop4" stop-color="#fff" stop-opacity="0" offset="1"/>
  </linearGradient>
  <linearGradient id="linearGradient19" x1="175.48" x2="211.26" y1="66.68" y2="113.55" gradientTransform="translate(5)" gradientUnits="userSpaceOnUse">
   <stop id="stop5" stop-color="#fff" offset="0"/>
   <stop id="stop6" stop-color="#fff" stop-opacity="0" offset="1"/>
  </linearGradient>
  <radialGradient id="radialGradient21" cx="19.145" cy="20.163" r="17.798" gradientTransform="matrix(1.5041,0,0,1.4974,-9.9858,-9.8075)" gradientUnits="userSpaceOnUse">
   <stop id="stop7" stop-color="#f00" offset="0"/>
   <stop id="stop8" stop-color="#f00" stop-opacity="0" offset="1"/>
  </radialGradient>
  <radialGradient id="radialGradient23" cx="291.12" cy="17.527" r="14.23" gradientTransform="matrix(1.4287 .38283 -.36667 1.3684 -108.39 -117.91)" gradientUnits="userSpaceOnUse">
   <stop id="stop9" stop-color="#00f" offset="0"/>
   <stop id="stop10" stop-color="#00f" stop-opacity="0" offset="1"/>
  </radialGradient>
  <radialGradient id="radialGradient25" cx="289.14" cy="160.17" r="17.959" gradientTransform="matrix(1.148,0,0,1.0913,-32.796,-14.618)" gradientUnits="userSpaceOnUse">
   <stop id="stop11" stop-color="#0f0" offset="0"/>
   <stop id="stop12" stop-color="#0f0" stop-opacity="0" offset="1"/>
  </radialGradient>
  <radialGradient id="radialGradient27" cx="23.871" cy="157.95" r="15.483" gradientTransform="matrix(1.1161 .64438 -.60808 1.0532 92.951 -24.199)" gradientUnits="userSpaceOnUse">
   <stop id="stop13" stop-color="#f0f" offset="0"/>
   <stop id="stop14" stop-color="#f0f" stop-opacity="0" offset="1"/>
  </radialGradient>
  <linearGradient id="linearGradient29" x1="83.478" x2="287.31" y1="12.007" y2="157.11" gradientTransform="matrix(3,0,0,3,-305,-180)" gradientUnits="userSpaceOnUse">
   <stop id="stop15" stop-color="#fff" offset="0"/>
   <stop id="stop16" stop-color="#232323" offset="1"/>
  </linearGradient>
  <linearGradient id="linearGradient35" x1="58.189" x2="252.12" y1="82.915" y2="191.92" gradientTransform="matrix(1 0 0 .23256 0 117.06)" gradientUnits="userSpaceOnUse">
   <stop id="stop17" stop-color="#f00" offset="0"/>
   <stop id="stop18" offset="1"/>
  </linearGradient>
 </defs>
 <path id="background" d="m-305-180h930v540h-930z" fill="url(#linearGradient29)" stroke-width="5.1558"/>
 <path id="text1" d="m105.81 19.523h-4.8437v12.51h-4v-12.51h-4.8437v-3h13.687zm11.769 7.3542h-8.5833q0.0833 1.375 1.0417 2.1042 0.96875 0.72916 2.8437 0.72916 1.1875 0 2.3021-0.42708 1.1146-0.42708 1.7604-0.91667h0.41666v3.0104q-1.2708 0.51042-2.3958 0.73958-1.125 0.22917-2.4896 0.22917-3.5208 0-5.3958-1.5833t-1.875-4.5104q0-2.8958 1.7708-4.5833 1.7812-1.6979 4.875-1.6979 2.8542 0 4.2917 1.4479 1.4375 1.4375 1.4375 4.1458zm-3.7292-2.1979q-0.0312-1.1771-0.58333-1.7708-0.55208-0.59375-1.7188-0.59375-1.0833 0-1.7812 0.5625-0.69791 0.5625-0.78125 1.8021zm8.175 7.3542h-3.75v-16.208h3.75zm5.3417 0h-3.75v-16.208h3.75zm13.248 0h-3.75v-1.2917q-1.0417 0.79166-1.9062 1.2083-0.86458 0.40625-2.0625 0.40625-1.9375 0-2.9896-1.1146-1.0417-1.1146-1.0417-3.2917v-7.6146h3.7708v5.8021q0 0.88542 0.0521 1.4792 0.0625 0.58333 0.27084 0.96875 0.19791 0.38542 0.59374 0.5625 0.40625 0.17708 1.125 0.17708 0.47917 0 1.0625-0.17708t1.125-0.52083v-8.2917h3.75zm11.758-3.7083q0 1.8125-1.625 2.9271-1.625 1.1042-4.4479 1.1042-1.5625 0-2.8333-0.29167t-2.0417-0.64583v-3.0833h0.34375q0.28125 0.19792 0.64584 0.4375 0.37499 0.22917 1.0521 0.5 0.58333 0.23958 1.3229 0.41667 0.73958 0.16667 1.5833 0.16667 1.1042 0 1.6354-0.23958 0.53125-0.25 0.53125-0.72916 0-0.42708-0.3125-0.61458-0.3125-0.19792-1.1875-0.375-0.41667-0.09375-1.1354-0.19792-0.70833-0.11458-1.2917-0.27083-1.5938-0.41667-2.3646-1.2917-0.77083-0.88542-0.77083-2.1979 0-1.6875 1.5937-2.8021 1.6042-1.125 4.375-1.125 1.3125 0 2.5104 0.27083 1.2083 0.26042 1.8854 0.5625v2.9583h-0.32291q-0.83333-0.57292-1.9062-0.92708-1.0625-0.36458-2.1562-0.36458-0.90624 0-1.5312 0.25-0.61459 0.25-0.61459 0.70833 0 0.41667 0.28125 0.63542 0.28125 0.21875 1.3229 0.4375 0.57291 0.11458 1.2292 0.22917 0.66667 0.10417 1.3333 0.27083 1.4792 0.38542 2.1875 1.2187 0.70833 0.82292 0.70833 2.0625zm4.2896 3.7083h-3.75v-11.698h3.75zm0.10416-13.365h-3.9583v-2.8437h3.9583zm12.925 5.0729v8.2917h-3.7708v-5.8437q0-0.85416-0.0417-1.4479-0.0417-0.60417-0.22917-0.97916-0.1875-0.375-0.57292-0.54167-0.375-0.17708-1.0625-0.17708-0.55209 0-1.0729 0.22917-0.52083 0.21875-0.9375 0.46875v8.2917h-3.75v-11.698h3.75v1.2917q0.96875-0.76042 1.8542-1.1875 0.88541-0.42708 1.9583-0.42708 1.1562 0 2.0417 0.52083 0.88542 0.51042 1.3854 1.5104 1.125-0.94792 2.1875-1.4896 1.0625-0.54167 2.0833-0.54167 1.8958 0 2.875 1.1354 0.98958 1.1354 0.98958 3.2708v7.6146h-3.7708v-5.8437q0-0.86458-0.0417-1.4583-0.0312-0.59375-0.21875-0.96875-0.17708-0.375-0.56249-0.54167-0.38542-0.17708-1.0833-0.17708-0.46875 0-0.91666 0.16667-0.44792 0.15625-1.0938 0.53125zm27.152 3.4167q0 2.2917-1.9479 3.7292-1.9375 1.4271-5.2708 1.4271-1.9271 0-3.3646-0.33333-1.4271-0.34375-2.6771-0.86458v-3.7187h0.4375q1.2396 0.98958 2.7708 1.5208 1.5417 0.53125 2.9583 0.53125 0.36458 0 0.95833-0.0625t0.96875-0.20833q0.45833-0.1875 0.75-0.46875 0.30208-0.28125 0.30208-0.83333 0-0.51042-0.4375-0.875-0.42708-0.375-1.2604-0.57292-0.875-0.20833-1.8542-0.38542-0.96875-0.1875-1.8229-0.46875-1.9583-0.63542-2.8229-1.7187-0.85417-1.0937-0.85417-2.7083 0-2.1667 1.9375-3.5312 1.9479-1.375 5-1.375 1.5312 0 3.0208 0.30208 1.5 0.29167 2.5937 0.73958v3.5729h-0.42708q-0.9375-0.75-2.3021-1.25-1.3542-0.51042-2.7708-0.51042-0.5 0-1 0.07292-0.48958 0.0625-0.94791 0.25-0.40625 0.15625-0.69792 0.47917-0.29166 0.3125-0.29166 0.71875 0 0.61458 0.46875 0.94792 0.46875 0.32292 1.7708 0.59375 0.85416 0.17708 1.6354 0.34375 0.79167 0.16667 1.6979 0.45833 1.7812 0.58333 2.625 1.5937 0.85417 1 0.85417 2.6042zm15.446-2.8646q0 2.1667-0.98958 3.8854-0.98958 1.7083-2.5 2.625-1.1354 0.6875-2.4896 0.95833-1.3542 0.27083-3.2083 0.27083h-5.4687v-15.51h5.625q1.8958 0 3.2708 0.32292 1.375 0.3125 2.3125 0.89583 1.6042 0.97916 2.5208 2.6458 0.92708 1.6562 0.92708 3.9062zm-4.1354-0.03125q0-1.5312-0.5625-2.6146-0.55208-1.0937-1.7604-1.7083-0.61459-0.30208-1.2604-0.40625-0.63541-0.11458-1.9271-0.11458h-1.0104v9.7083h1.0104q1.4271 0 2.0938-0.125 0.66666-0.13542 1.3021-0.47917 1.0938-0.625 1.6042-1.6667 0.51042-1.0521 0.51042-2.5937zm19.717 7.7708h-4.9062l-4.6354-6.2083-0.9375 1.1354v5.0729h-4v-15.51h4v7.0208l5.5417-7.0208h4.6354l-6.0625 7.1771z" aria-label="Tellusim SDK"/>
 <g id="g2">
  <path id="t" d="m146.12 0h27.752v9.0726h-27.752z" fill="#b2b2b2"/>
  <path id="l" d="m0 103.88v-27.752h9.0726v27.752z" fill="#c8c8c8"/>
  <path id="b" d="m146.12 170.93h27.752v9.0726h-27.752z" fill="#979797"/>
  <path id="r" d="m310.93 103.88v-27.752h9.0726v27.752z" fill="#818181"/>
 </g>
 <g id="g26" stroke-width=".24545">
  <path id="lt0" d="m24.399 2.112 13.097 13.041c2.8162 2.8041 2.8299 7.3053 0.03069 10.092l-12.173 12.121c-2.7991 2.7871-7.3196 2.7734-10.136-0.03067l-13.097-13.041c-2.8162-2.8041-2.8299-7.3053-0.030693-10.092l12.173-12.121c2.7991-2.7871 7.3196-2.7734 10.136 0.030662z" stroke-width=".34338"/>
  <path id="rt0" d="m320 19.086-12.427 4.3776-3.3565 11.84-8.2804-9.729-13.046 0.66538 7.3092-10.391-4.7064-11.428 12.798 3.3073 10.137-7.7285 0.60015 12.435z" stroke-width=".33455"/>
  <path id="rb0" d="m298.14 140.34 21.864 20.783-19.861 18.878-21.864-20.783z" stroke-width=".34559"/>
  <path id="lt1" d="m19.078 2.0059c-1.7007 0.018151-3.1421 1.0702-4.2169 2.3035-3.8947 3.9002-7.8343 7.7579-11.701 11.685-1.7343 1.9988-1.4621 5.2873 0.51476 7.0239 4.4585 4.4136 8.8661 8.8815 13.356 13.261 2.024 1.7286 5.3369 1.4914 7.0929-0.51026 4.1087-4.1176 8.271-8.1845 12.347-12.333 1.7202-2.0006 1.4397-5.2759-0.5304-7.0083-4.4562-4.412-8.8641-8.8757-13.35-13.255-0.97691-0.80158-2.2491-1.2249-3.5117-1.166z" fill="url(#radialGradient21)" stroke-width=".34338"/>
  <path id="rb1" d="m281.19 159.22 18.961 18.023 16.957-16.119-18.961-18.023z" fill="url(#radialGradient25)" stroke-width=".34559"/>
  <path id="rt1" d="m298.74 9.3957-9.8746-2.0383 3.6016 8.7461-5.5781 7.9297 9.9297-0.50586 6.4961 7.6289 2.6152-9.2344 9.418-3.3164-8.2676-5.0137-0.4668-9.6934z" fill="url(#radialGradient23)" stroke-width=".33455"/>
  <path id="lb0" d="m7.0679 173.32 6.8456-16.958-13.913-2.1211 18.304-5.5181-6.9192-11.598 15.981 10.078 5.2851-12.341 1.6221 18.086 13.51-3.7913-13.957 12.474 11.561 7.6134-19.027-2.5304 0.90689 13.285-9.7684-15.629z" stroke-width=".30031"/>
  <path id="lb1" d="m28.282 150.09-10.903-6.8241 3.957 6.6289-12.279 3.6992 7.6582 1.168-4.7168 11.689 5.9629-5.1191 6.7637 10.824-0.52734-7.752 12.795 1.7012-6.4375-4.2383 9.4688-8.459-7.5273 2.1113-1.1289-12.586z" fill="url(#radialGradient27)"/>
 </g>
 <path id="gr2" d="m112.4 141.68h6.4899v18.49h-6.4899z" fill="#a30000"/>
 <path id="gr3" d="m151.76 141.68h6.4899v18.49h-6.4899z" fill="#7a0000"/>
 <path id="gr4" d="m191.11 141.68h6.4899v18.49h-6.4899z" fill="#510000"/>
 <path id="gr5" d="m230.47 141.68h6.4899v18.49h-6.4899z" fill="#2c0000"/>
 <path id="gr1" d="m73.044 141.68h6.4899v18.49h-6.4899z" fill="#ca0000"/>
 <path id="gr0" d="m73.044 149.08h163.91v4.0673h-163.91z" fill="url(#linearGradient35)" stroke-width=".48224"/>
 <path id="s0" d="m124.08 70.043c-4.9122 0.09697-10.043 1.6605-13.459 5.3457-2.2335 2.3695-3.2054 5.7334-2.8525 8.9435 0.23928 3.2943 1.9757 6.4774 4.7861 8.2655 3.451 2.307 7.6196 3.0427 11.612 3.8529 1.1617 0.31063 2.5822 0.3982 3.38 1.4088 0.24583 0.78597-0.73686 1.07-1.2891 1.293-4.3697 1.0148-9.0305-0.18429-12.787-2.5109-0.86186-0.47944-1.5879-1.2313-2.4203-1.6981h-3.5484v11.645c4.1181 1.7964 8.4971 3.1421 13.018 3.2807 5.0104 0.26036 10.368-0.28969 14.591-3.2326 2.7786-1.8847 4.4383-4.9539 5.343-8.2277 0.13633-0.49332 0.1417-1.1144 0.16825-1.5991 0.1581-2.8861-0.73511-5.9184-2.8157-8.0167-2.7881-2.8942-6.8296-3.9956-10.632-4.8404-2.0836-0.52842-4.3022-0.69982-6.2454-1.6688-0.52438-0.47188 0.12609-1.0603 0.5852-1.2347 2.2613-0.91601 4.8243-0.74562 7.162-0.22252 2.5382 0.64609 4.9575 1.8124 6.9618 3.5099h3.6211v-11.332c-4.7623-2.056-9.9919-3.0777-15.178-2.9609z"/>
 <path id="s1" d="m138.61 96.409q0 5.1177-4.2752 8.3279-4.2524 3.1869-11.568 3.1869-4.2295 0-7.3845-0.74439-3.1321-0.76765-5.8756-1.9308v-8.3046h0.96021q2.7206 2.2099 6.0813 3.3963 3.3836 1.1864 6.4928 1.1864 0.80018 0 2.1033-0.13957t2.1262-0.46524q1.0059-0.41872 1.6461-1.0468 0.663-0.62808 0.663-1.861 0-1.1398-0.96021-1.954-0.93735-0.83744-2.7663-1.2794-1.9204-0.46524-4.0695-0.8607-2.1262-0.41872-4.0009-1.0468-4.2981-1.419-6.1956-3.8382-1.8747-2.4425-1.8747-6.0482 0-4.8385 4.2524-7.8859 4.2752-3.0706 10.974-3.0706 3.3607 0 6.63 0.6746 3.2921 0.65134 5.6927 1.6516v7.9789h-0.93735q-2.0576-1.6749-5.0525-2.7915-2.9721-1.1398-6.0813-1.1398-1.0974 0-2.1948 0.16283-1.0745 0.13957-2.0804 0.55829-0.89162 0.34893-1.5318 1.0701-0.64014 0.69786-0.64014 1.6051 0 1.3725 1.0288 2.1169 1.0288 0.72113 3.8866 1.3259 1.8747 0.39546 3.5894 0.76765 1.7375 0.37219 3.7265 1.0235 3.9094 1.3027 5.7612 3.5591 1.8747 2.2332 1.8747 5.8155z" fill="url(#linearGradient15)"/>
 <path id="v0" d="m138.95 73.332c4.296 11.988 8.5937 23.975 12.889 35.963h12.646c4.6148-12.879 9.2308-25.758 13.848-38.637h-13.262c-2.2635 6.6971-4.5302 13.393-6.7949 20.09-2.2647-6.6967-4.5314-13.393-6.7949-20.09h-13.49l0.95898 2.6738z"/>
 <path id="v1" d="m175.49 72.658-12.414 34.637h-9.8307l-12.414-34.637h9.2134l8.2304 24.332 8.2304-24.332z" fill="url(#linearGradient17)"/>
 <path id="g0" d="m196.05 70.002c-5.0313 0.1379-10.221 1.7029-13.878 5.2948-3.6343 3.3972-5.5597 8.3309-5.7466 13.254-0.28323 5.2687 0.87754 10.871 4.4062 14.946 3.2305 3.8875 8.1998 5.963 13.161 6.3801 5.8855 0.58198 15.364-1.9024 18.202-3.1231 0.51643-0.27058 0.28886-20.535 0.28886-20.535h-19.705v10.537h6.7891v2.8809c-2.9539 0.05362-6.2852-0.58179-8.1797-3.0664-1.8712-2.5016-2.0833-5.8331-1.7369-8.8341 0.33244-2.8184 2.0632-5.5482 4.775-6.5958 3.6573-1.448 7.8974-0.52073 11.049 1.6888 1.0961 0.75137 2.161 1.5474 3.2254 2.3427h3.6465v-11.381c-3.3119-1.6752-6.8152-3.0854-10.531-3.5053-1.9092-0.25868-3.8411-0.34087-5.7663-0.28379z"/>
 <path id="g1" d="m210.49 105.32q-2.2862 0.90722-6.0585 1.8144-3.7722 0.88397-7.5216 0.88397-8.6876 0-13.603-4.792-4.9154-4.8153-4.9154-13.283 0-8.072 4.9611-13.004 4.9611-4.9548 13.832-4.9548 3.3607 0 6.4014 0.62807 3.0407 0.60482 6.7672 2.4425v8.1185h-0.98308q-0.64013-0.4885-1.8747-1.3725-1.2346-0.90722-2.3777-1.5353-1.326-0.74438-3.1092-1.2794-1.7604-0.53503-3.7494-0.53503-2.3319 0-4.2295 0.69786-1.8976 0.69787-3.4064 2.1401-1.4403 1.3957-2.2862 3.5591-0.82303 2.1401-0.82303 4.9548 0 5.7457 2.9949 8.7931 2.9949 3.0473 8.8476 3.0473 0.50296 0 1.0974-0.0233 0.61728-0.0233 1.1202-0.0698v-6.7925h-6.79v-6.5367h15.706z" fill="url(#linearGradient19)"/>
</svg>
